<?xml version="1.0" encoding="utf-8"?>
<!-- Generator: Adobe Illustrator 28.0.0, SVG Export Plug-In . SVG Version: 6.00 Build 0)  -->
<svg version="1.1" xmlns="http://www.w3.org/2000/svg" xmlns:xlink="http://www.w3.org/1999/xlink" x="0px" y="0px"
	 viewBox="0 0 200 200" style="enable-background:new 0 0 200 200;" xml:space="preserve">
<style type="text/css">
	.st0{fill:#25B495;stroke:#000000;stroke-width:4;stroke-miterlimit:10;}
	.st1{fill:#FFF200;}
	.st2{fill:none;stroke:#000000;stroke-width:4;stroke-miterlimit:10;}
	.st3{fill:none;stroke:#000000;stroke-miterlimit:10;}
</style>
<g id="Layer_1">
	<path class="st0" d="M145.2,160H54.8c-8.2,0-14.8-6.6-14.8-14.8V54.8C40,46.6,46.6,40,54.8,40h90.4c8.2,0,14.8,6.6,14.8,14.8v90.4
		C160,153.4,153.4,160,145.2,160z"/>
	<g id="Layer_2">
		<g>
			<polygon class="st1" points="80.4,137.1 96.6,101.4 86.3,101.4 98.6,71.4 116,71.5 108,89.4 117.2,89.4 			"/>
		</g>
		<g>
			<path d="M80.4,137.1c11.2-16.7,23.5-32.6,36.4-48c0,0,0.4,0.8,0.4,0.8c-2.7-0.1-6.5-0.3-9.2-0.5c3.1-0.2,7.1-0.4,10.2-0.6
				c0,0-0.6,0.9-0.6,0.9C105.9,106,93.7,122,80.4,137.1L80.4,137.1z"/>
		</g>
		<g>
			<path d="M98.6,71.4c-3,10.4-7.1,20.4-11.5,30.3c0,0-0.7-1.1-0.7-1.1c3.5,0.2,6.9,0.4,10.3,0.8c-1.7,0.2-3.4,0.3-5.2,0.5
				c-2.1,0.1-4.2,0.3-6.3,0.3C89,91.7,93.3,81.3,98.6,71.4L98.6,71.4z"/>
		</g>
	</g>
	<line class="st2" x1="120" y1="40" x2="120" y2="160"/>
	<line class="st2" x1="40" y1="80" x2="160" y2="80"/>
	<line class="st2" x1="40" y1="120" x2="160" y2="120"/>
	<line class="st2" x1="80" y1="160" x2="80" y2="40"/>
</g>
<g id="Layer_3">
	<g>
		<path d="M66.2,56.9c9.2-0.7,18.6-0.7,27.8,0C84.8,57.6,75.5,57.6,66.2,56.9L66.2,56.9z"/>
	</g>
	<g>
		<path d="M71.5,57.3c6.4-0.4,12.9-0.4,19.3,0.2C84.3,58,77.9,57.9,71.5,57.3L71.5,57.3z"/>
	</g>
	<g>
		<path d="M110,132.9c2.2-0.2,4.4-0.4,6.6-0.5c2.2-0.1,4.4-0.2,6.6-0.3c2.2,0,4.4-0.1,6.6-0.1c2.2,0,4.4,0,6.6,0.1
			c-2.2,0.2-4.4,0.4-6.6,0.5c-2.2,0.1-4.4,0.2-6.6,0.3c-2.2,0-4.4,0.1-6.6,0.1C114.3,133,112.2,133,110,132.9z"/>
	</g>
	<g>
		<path d="M106.1,65.8c9.2-0.7,18.6-0.7,27.8,0C124.7,66.5,115.3,66.5,106.1,65.8L106.1,65.8z"/>
	</g>
	<g>
		<path d="M109.6,132.6c9.2-0.7,18.6-0.7,27.8,0C128.2,133.2,118.9,133.2,109.6,132.6L109.6,132.6z"/>
	</g>
	<g>
		<path d="M140.3,135c-1.4-9.2-1.4-18.6,0-27.8C141.7,116.4,141.7,125.8,140.3,135L140.3,135z"/>
	</g>
	<g>
		<path d="M49.8,93.9c-1.4-9.2-1.4-18.6,0-27.8C51.2,75.3,51.2,84.7,49.8,93.9L49.8,93.9z"/>
	</g>
	<g>
		<path d="M148.6,95.9c-0.7-9.2-0.7-18.6,0-27.8C149.3,77.3,149.3,86.6,148.6,95.9L148.6,95.9z"/>
	</g>
	<g>
		<path d="M68.5,127.8c-0.7-9.2-0.7-18.6,0-27.8C69.2,109.2,69.2,118.6,68.5,127.8L68.5,127.8z"/>
	</g>
	<g>
		<path d="M66.1,136.4c9.2-0.7,18.6-0.7,27.8,0C84.7,137.1,75.3,137.1,66.1,136.4L66.1,136.4z"/>
	</g>
	<line class="st3" x1="-23.5" y1="41" x2="-23.7" y2="41"/>
</g>
</svg>
